# xmcd
#
# Track frame offsets:
#	150
#	20774
#	42762
#	60985
#	82435
#	95649
#	114844
#	133073
#	154233
#	169462
#	190689
#	208767
#	229173
#	247635
#	264502
#	281383
#	295269
#	319344
#
# Disc length: 4531
#
# Revision: 2
# Processed by: cddbd v1.5.1PL0 Copyright (c) Steve Scherf et al.
# Submitted via: EasyCDDAExtractor 7.0.5.4
# Normalized: r1:DSETVAR1
#
DISCID=0411b112
DTITLE=Various Artist - This love is unbreakable
DYEAR=2003
DGENRE=Ballad
TTITLE0=Westlife - Unbreakable
TTITLE1=Toni Braxton - Spanish Guitar
TTITLE2=Lonestar - Amazed
TTITLE3=Nsync - This I promise
TTITLE4=Cofield Mandi - Blueboy
TTITLE5=Dido - Here with me
TTITLE6=M People - Just for you
TTITLE7=Curtis Stigers - You're all that matters to me
TTITLE8=Harry Nislson - Without you
TTITLE9=O-Town - All or nothing
TTITLE10=Adrian Shannon - My Angel
TTITLE11=Five - Closer to me
TTITLE12=Nicole Billingham - Breathe
TTITLE13=Britney Spears - I'll never stop loving you
TTITLE14=Barry Manilow - All the way
TTITLE15=Rick Astley - When i fall in love
TTITLE16=Nianell - Just for nothing
TTITLE17=Sarah McLaclan - Angel
EXTD=
EXTT0=
EXTT1=
EXTT2=
EXTT3=
EXTT4=
EXTT5=
EXTT6=
EXTT7=
EXTT8=
EXTT9=
EXTT10=
EXTT11=
EXTT12=
EXTT13=
EXTT14=
EXTT15=
EXTT16=
EXTT17=
PLAYORDER=
